<svg viewBox="0 0 174 180" fill="none" xmlns="http://www.w3.org/2000/svg" overflow="visible" style="display:block">
<g filter="url(#filter0_d_1_101)">
<path d="M31.5582 86.2504C25.1718 82.6625 25.1656 73.4709 31.5472 69.8752V69.8752C36.2653 67.2168 37.7643 61.1302 34.8205 56.5843L34.5385 56.1489C30.6215 50.1003 34.8756 42.1031 42.0803 41.9711V41.9711C47.4534 41.8728 51.5948 37.2032 51.0506 31.8568L50.9855 31.2171C50.261 24.099 57.7245 19.0186 64.0813 22.3029V22.3029C68.8407 24.7619 74.7099 22.4748 76.6443 17.4794V17.4794C79.2486 10.7537 88.3662 9.55483 92.4907 15.4719V15.4719C95.558 19.8721 101.779 20.6296 105.803 17.0835V17.0835C111.183 12.3425 119.676 15.5084 120.641 22.6145L120.706 23.0935C121.427 28.4056 126.569 31.9406 131.787 30.712V30.712C138.763 29.0694 144.804 35.7771 142.443 42.5439L142.227 43.163C140.449 48.2557 143.364 53.7874 148.569 55.2018V55.2018C155.578 57.1063 157.678 66.0628 152.398 71.0497V71.0497C148.448 74.7808 148.452 81.2033 152.407 84.9297V84.9297C157.694 89.9101 155.606 98.8692 148.6 100.782V100.782C143.396 102.203 140.49 107.738 142.273 112.829L142.49 113.447C144.861 120.211 138.829 126.926 131.85 125.292V125.292C126.631 124.07 121.494 127.611 120.78 132.924L120.716 133.403C119.761 140.511 111.271 143.687 105.885 138.952V138.952C101.856 135.411 95.6363 136.176 92.575 140.58V140.58C88.4585 146.502 79.3393 145.314 76.7259 138.592V138.592C74.7848 133.599 68.9125 131.319 64.1564 133.783V133.783C57.8041 137.075 50.3337 132.004 51.0486 124.885L51.1128 124.245C51.6498 118.898 47.5022 114.234 42.1289 114.142V114.142C34.9241 114.019 30.6592 106.026 34.568 99.9731L34.8494 99.5373C37.7872 94.9879 36.2799 88.9031 31.5582 86.2504V86.2504Z" fill="url(#paint0_linear_1_101)"/>
</g>
<path d="M72.0629 75.0394L64.5326 52.6536L67.8286 52.6474L74.7476 73.3063L73.0836 73.3095L80.1805 52.624L83.1245 52.6185L90.1396 73.2772L88.5396 73.2803L95.4765 52.5951L98.5165 52.5894L91.0708 75.0035L87.7108 75.0098L81.1466 55.8542L82.0106 55.8526L75.4869 75.0329L72.0629 75.0394ZM104.721 62.2417L116.241 62.2199L116.246 64.9399L104.726 64.9617L104.721 62.2417ZM105.028 72.1931L118.084 72.1685L118.089 74.9524L101.833 74.9832L101.791 52.5832L117.599 52.5533L117.604 55.3373L104.996 55.3611L105.028 72.1931ZM65.8211 80.6512L69.0211 80.6452L69.0634 103.045L65.8634 103.051L65.8211 80.6512ZM52.9994 103.075L49.7994 103.082L49.7571 80.6816L52.9571 80.6755L52.9994 103.075ZM66.1325 93.0666L52.6606 93.0921L52.6553 90.3081L66.1273 90.2826L66.1325 93.0666ZM71.7361 103.04L81.8378 80.6209L85.0058 80.615L95.2241 102.996L91.8641 103.002L82.7692 82.4112L84.0492 82.4088L75.0321 103.034L71.7361 103.04ZM76.0456 97.4319L76.9047 94.8703L89.5127 94.8465L90.4455 97.4047L76.0456 97.4319ZM103.202 102.981L93.3038 80.5993L96.7598 80.5928L105.855 101.248L103.871 101.251L112.952 80.5622L116.152 80.5561L106.37 102.975L103.202 102.981ZM121.298 90.2104L132.818 90.1886L132.824 92.9086L121.304 92.9304L121.298 90.2104ZM121.605 100.162L134.661 100.137L134.667 102.921L118.411 102.952L118.368 80.5519L134.176 80.5221L134.181 83.3061L121.573 83.3299L121.605 100.162Z" fill="white"/>
<defs>

<linearGradient id="paint0_linear_1_101" x1="114.902" y1="0.99301" x2="120.862" y2="118.101" gradientUnits="userSpaceOnUse">
<stop stop-color="#237249"/>
<stop offset="1" stop-color="#35C66B"/>
</linearGradient>
</defs>
</svg>
